<svg width="400" height="300" viewBox="0 0 400 300" fill="none" xmlns="http://www.w3.org/2000/svg">
<path opacity="0.1" d="M202.236 271.318C268.996 271.318 323.116 217.002 323.116 150C323.116 82.998 268.996 28.682 202.236 28.682C135.476 28.682 81.356 82.998 81.356 150C81.356 217.002 135.476 271.318 202.236 271.318Z" fill="#5578EC"/>
<path d="M144.469 211.602H136.25V151.514C136.252 150.348 135.79 149.228 134.967 148.402C134.144 147.576 133.026 147.11 131.86 147.107H117.188C116.465 147.107 115.754 147.286 115.117 147.627C114.48 147.969 113.938 148.463 113.538 149.065L68.798 216.236C68.3155 216.962 68.0581 217.814 68.058 218.685V230.976C68.0569 231.554 68.1697 232.126 68.3897 232.66C68.6098 233.194 68.9328 233.679 69.3405 234.088C69.7481 234.497 70.2324 234.822 70.7656 235.044C71.2987 235.266 71.8704 235.381 72.448 235.382H110.009V252.392C110.008 252.97 110.12 253.542 110.34 254.076C110.56 254.61 110.884 255.095 111.291 255.504C111.699 255.914 112.183 256.238 112.716 256.46C113.25 256.682 113.821 256.797 114.399 256.798H131.859C132.436 256.797 133.008 256.682 133.541 256.46C134.074 256.238 134.559 255.913 134.966 255.504C135.374 255.095 135.697 254.61 135.917 254.076C136.137 253.542 136.25 252.97 136.249 252.392V235.382H144.468C145.634 235.38 146.752 234.914 147.575 234.088C148.398 233.262 148.86 232.142 148.858 230.976V216.008C148.86 214.842 148.399 213.723 147.576 212.896C146.753 212.07 145.635 211.605 144.469 211.602ZM99.209 211.602L110.009 195.372V211.602H99.209ZM190.664 145.525C177.236 145.525 166.886 150.623 159.903 160.675C153.265 170.229 149.899 184.138 149.899 202.014C149.899 219.806 153.264 233.692 159.897 243.284C166.879 253.382 177.231 258.502 190.664 258.502C204.094 258.502 214.446 253.382 221.431 243.284C228.065 233.689 231.429 219.803 231.429 202.014C231.429 184.141 228.063 170.232 221.424 160.675C214.439 150.622 204.089 145.525 190.664 145.525ZM180.614 175.637C182.761 171.174 185.86 169.184 190.664 169.184C195.466 169.184 198.566 171.175 200.714 175.637C203.281 180.973 204.582 189.847 204.582 202.014C204.582 214.181 203.281 223.055 200.715 228.389C198.566 232.854 195.466 234.844 190.664 234.844C185.862 234.844 182.761 232.854 180.614 228.389C178.048 223.059 176.747 214.185 176.747 202.014C176.747 189.843 178.047 180.969 180.614 175.637ZM308.881 211.602H300.661V151.514C300.663 150.348 300.201 149.228 299.378 148.402C298.555 147.576 297.437 147.11 296.271 147.107H281.6C280.877 147.108 280.166 147.287 279.53 147.629C278.893 147.97 278.35 148.464 277.95 149.065L233.209 216.236C232.726 216.962 232.469 217.814 232.469 218.685V230.976C232.468 231.554 232.58 232.126 232.8 232.66C233.02 233.194 233.343 233.68 233.751 234.089C234.159 234.498 234.643 234.823 235.176 235.045C235.71 235.267 236.281 235.381 236.859 235.382H274.422V252.392C274.42 252.97 274.533 253.542 274.753 254.076C274.973 254.611 275.296 255.096 275.703 255.505C276.111 255.915 276.595 256.239 277.129 256.461C277.662 256.683 278.234 256.797 278.812 256.798H296.271C296.848 256.797 297.42 256.682 297.953 256.46C298.486 256.238 298.971 255.913 299.378 255.504C299.786 255.095 300.109 254.61 300.329 254.076C300.549 253.542 300.662 252.97 300.661 252.392V235.382H308.881C309.459 235.381 310.03 235.266 310.563 235.044C311.097 234.822 311.581 234.497 311.989 234.088C312.396 233.679 312.719 233.194 312.939 232.66C313.159 232.126 313.272 231.554 313.271 230.976V216.008C313.272 215.43 313.16 214.858 312.94 214.324C312.72 213.79 312.397 213.304 311.989 212.895C311.581 212.486 311.097 212.161 310.564 211.939C310.03 211.717 309.459 211.603 308.881 211.602ZM263.621 211.602L274.421 195.372V211.602H263.621Z" fill="#F4702A" stroke="#31333A" stroke-width="0.998" stroke-linecap="round" stroke-linejoin="round"/>
<path d="M272.84 264.22H233.132C231.683 255.93 253.111 261.311 253.111 261.311C234.127 234.55 276.753 246.476 272.84 264.22ZM284.079 204.527C330.926 232.112 300.772 263.146 300.772 263.146C313.452 217.619 275.939 207.594 281.427 204.435C281.837 204.212 282.299 204.103 282.766 204.119C283.232 204.135 283.685 204.276 284.079 204.527Z" fill="#31333A"/>
<path d="M307.26 228.713C310.708 228.713 313.503 225.908 313.503 222.448C313.503 218.988 310.708 216.183 307.26 216.183C303.813 216.183 301.018 218.988 301.018 222.448C301.018 225.908 303.813 228.713 307.26 228.713Z" fill="#31333A"/>
<path d="M246.935 264.19L297.531 264.217C298.622 264.216 299.687 263.889 300.591 263.279C301.495 262.668 302.196 261.802 302.605 260.791C323.839 208.623 260.242 225.226 249.184 255.706L246.935 264.19Z" fill="#31333A"/>
<path d="M279.952 237.93C284.195 237.93 287.635 234.478 287.635 230.22C287.635 225.962 284.195 222.51 279.952 222.51C275.71 222.51 272.27 225.962 272.27 230.22C272.27 234.478 275.71 237.93 279.952 237.93ZM280.875 245.663C272.174 244.065 276.924 258.282 276.924 258.282C276.924 258.282 270.018 256.104 265.85 257.129C265.85 257.129 268.083 242.596 259.076 239.714C250.07 236.833 246.394 265.072 246.394 265.072L285.394 268.019L293.249 262.247L280.875 245.663ZM306.195 263.349C310.437 263.349 313.877 259.897 313.877 255.639C313.877 251.381 310.437 247.929 306.195 247.929C301.952 247.929 298.512 251.381 298.512 255.639C298.512 259.897 301.952 263.349 306.195 263.349Z" fill="#31333A"/>
<path d="M296.53 264.22H261.442C259.993 255.93 281.421 261.311 281.421 261.311C273.415 249.861 275.977 244.25 281.461 243.242M267.436 238.749L264.348 246.997L259.076 239.714L266.739 237.944C266.846 237.92 266.957 237.925 267.061 237.959C267.164 237.994 267.257 238.055 267.328 238.138C267.4 238.22 267.448 238.321 267.467 238.429C267.486 238.536 267.475 238.647 267.436 238.749ZM244.953 232.35L250.07 236.833C250.153 236.907 250.214 237.002 250.248 237.107C250.281 237.213 250.285 237.326 250.26 237.434C250.233 237.541 250.177 237.639 250.099 237.718C250.02 237.796 249.922 237.852 249.815 237.879L244.087 239.27C243.993 239.293 243.894 239.294 243.8 239.271C243.706 239.248 243.618 239.202 243.545 239.138C243.472 239.074 243.416 238.993 243.381 238.903C243.346 238.812 243.333 238.714 243.344 238.618L243.954 232.744C243.964 232.633 244.005 232.528 244.072 232.439C244.139 232.35 244.229 232.282 244.333 232.242C244.436 232.202 244.549 232.191 244.658 232.21C244.767 232.229 244.869 232.277 244.953 232.35Z" fill="#31333A"/>
<path d="M251.289 264.214C258.987 264.214 265.227 257.951 265.227 250.226C265.227 242.5 258.987 236.237 251.289 236.237C243.592 236.237 237.351 242.5 237.351 250.226C237.351 257.951 243.592 264.214 251.289 264.214Z" fill="#31333A"/>
<path d="M256.973 250.013C257.48 248.095 256.585 246.195 254.974 245.769C253.363 245.344 251.646 246.553 251.14 248.471C250.633 250.389 251.528 252.289 253.139 252.715C254.75 253.141 256.467 251.931 256.973 250.013Z" fill="white" stroke="#31333A" stroke-width="0.998" stroke-linecap="round" stroke-linejoin="round"/>
<path d="M253.826 247.988C253.988 247.376 253.703 246.77 253.189 246.634C252.675 246.499 252.128 246.885 251.966 247.496C251.805 248.108 252.09 248.714 252.604 248.849C253.117 248.985 253.665 248.599 253.826 247.988Z" fill="#31333A"/>
<path d="M246.216 247.1C246.723 245.182 245.828 243.282 244.217 242.856C242.606 242.43 240.889 243.64 240.383 245.558C239.876 247.476 240.771 249.376 242.382 249.802C243.993 250.228 245.71 249.018 246.216 247.1Z" fill="white" stroke="#31333A" stroke-width="0.998" stroke-linecap="round" stroke-linejoin="round"/>
<path d="M243.069 245.074C243.231 244.462 242.945 243.856 242.432 243.72C241.918 243.585 241.371 243.97 241.209 244.582C241.048 245.194 241.333 245.799 241.847 245.935C242.36 246.071 242.908 245.685 243.069 245.074ZM265.85 253.946C262.968 254.215 260.071 254.296 257.178 254.189C254.284 254.128 251.397 253.876 248.536 253.436C251.418 253.165 254.315 253.083 257.208 253.192C260.102 253.256 262.988 253.508 265.85 253.946ZM264.987 257.424C262.154 257.177 259.341 256.744 256.565 256.126C253.78 255.552 251.036 254.793 248.352 253.854C251.185 254.098 253.999 254.531 256.774 255.151C259.559 255.727 262.302 256.486 264.987 257.424ZM264.153 260.491C261.382 259.818 258.659 258.963 256.001 257.931C253.327 256.942 250.722 255.775 248.204 254.438C250.975 255.11 253.698 255.965 256.355 256.998C259.028 257.99 261.633 259.157 264.153 260.491ZM233.643 244.064C235.667 245.155 237.597 246.411 239.416 247.818C241.262 249.188 242.991 250.709 244.586 252.365C242.561 251.276 240.63 250.02 238.813 248.612C236.969 247.24 235.239 245.718 233.643 244.064ZM232.927 247.507C234.994 248.063 237.008 248.8 238.946 249.71C240.903 250.578 242.778 251.619 244.55 252.82C242.482 252.265 240.468 251.528 238.531 250.617C236.575 249.747 234.7 248.706 232.927 247.507ZM232.339 250.579C234.416 250.701 236.477 251.011 238.499 251.504C240.53 251.954 242.516 252.589 244.431 253.401C242.354 253.281 240.293 252.971 238.272 252.476C236.241 252.024 234.255 251.389 232.339 250.579ZM247.633 251.744C246.994 250.702 245.553 250.937 245.936 252.66C246.319 254.382 248.11 252.52 247.633 251.744Z" fill="#31333A"/>
<path d="M192.855 237.615L190.884 230.898C190.884 230.898 198.792 235.316 188.909 228.332C185.559 225.964 181.046 222.6 182.038 217.976C184.991 204.208 195.968 184.547 198.38 182.537L175.29 193.712L167.723 219.838C167.35 220.852 167.299 221.957 167.578 223.001C167.858 224.045 168.453 224.978 169.283 225.67L184.676 238.413L192.855 237.615Z" fill="white"/>
<path d="M166.161 196.827C165.143 205.048 181.664 203.117 184.761 215.253C187.858 227.388 187.844 199.662 187.844 199.662L169.992 197.678" fill="#DCDDDD"/>
<path d="M162.465 214.459L185.039 214.325L173.622 199.471" fill="#DCDDDD"/>
<path d="M192.855 237.615L190.884 230.898C190.884 230.898 198.792 235.316 188.909 228.332C185.559 225.964 181.046 222.6 182.038 217.976C184.991 204.208 195.968 184.547 198.38 182.537L175.29 193.712L167.723 219.838C167.35 220.852 167.299 221.957 167.578 223.001C167.858 224.045 168.453 224.978 169.283 225.67L184.676 238.413L192.855 237.615Z" stroke="#31333A" stroke-width="0.998" stroke-linecap="round" stroke-linejoin="round"/>
<path d="M163.672 230.625L201.602 244.815C205.792 236.455 187.858 227.39 187.858 227.39C187.858 227.39 182.221 232.55 181.748 235.873L164.446 228.66C164.301 228.6 164.144 228.573 163.987 228.583C163.83 228.592 163.677 228.636 163.539 228.713C163.402 228.789 163.283 228.896 163.193 229.025C163.103 229.153 163.042 229.301 163.017 229.456C162.975 229.696 163.018 229.944 163.137 230.157C163.256 230.37 163.445 230.535 163.672 230.625Z" fill="white" stroke="#31333A" stroke-width="0.998" stroke-linecap="round" stroke-linejoin="round"/>
<path d="M201.713 141.299L201.716 141.296L201.633 141.251C201.378 141.104 201.119 140.964 200.856 140.831L158.889 116.185L137.193 112.312L135.08 145.073L131.54 144.976C133.369 146.003 163.146 157.013 178.868 160.85L163.6 206.224C163.6 206.224 188.456 222.893 192.854 218.452L207.858 160.635C209.381 157.219 209.597 153.362 208.464 149.798C207.331 146.233 204.929 143.209 201.713 141.299Z" fill="#5578EC"/>
<path d="M163.746 200.389C173.278 208.102 195.797 217.02 197.585 214.61" stroke="#31333A" stroke-width="0.998" stroke-linecap="round" stroke-linejoin="round"/>
<path d="M138.07 125.42C138.427 126.151 158.961 162.784 158.961 162.784H141.964L138.292 137.114" fill="#1846D6"/>
<path d="M201.713 141.299L201.716 141.296L201.633 141.251C201.378 141.104 201.119 140.964 200.856 140.831L158.889 116.185L137.193 112.312L135.08 145.073L131.54 144.976C133.369 146.003 163.146 157.013 178.868 160.85L163.6 206.224C163.6 206.224 188.456 222.893 192.854 218.452L207.858 160.635C209.381 157.219 209.597 153.362 208.464 149.798C207.331 146.233 204.929 143.209 201.713 141.299Z" stroke="#31333A" stroke-width="0.998" stroke-linecap="round" stroke-linejoin="round"/>
<path d="M96.404 96.627L95.308 95.041L107.071 80.578L116.801 90.641L96.404 96.627Z" fill="white" stroke="#31333A" stroke-width="0.998" stroke-linecap="round" stroke-linejoin="round"/>
<path d="M144.113 141.193L141.342 156.747L129.492 157.307C124.695 157.513 119.983 155.994 116.209 153.026C112.434 150.058 109.847 145.837 108.916 141.127L100.624 100.269C100.192 98.1785 100.521 96.0026 101.549 94.1322C102.578 92.2619 104.24 90.8198 106.237 90.065L127.259 82.235L140.557 112.312" fill="#5578EC"/>
<path d="M144.113 141.193L141.342 156.747L129.492 157.307C124.695 157.513 119.983 155.994 116.209 153.026C112.434 150.058 109.847 145.837 108.916 141.127L100.624 100.269C100.192 98.1785 100.521 96.0026 101.549 94.1322C102.578 92.2619 104.24 90.8198 106.237 90.065L127.259 82.235L140.557 112.312" stroke="#31333A" stroke-width="0.998" stroke-linecap="round" stroke-linejoin="round"/>
<path d="M157.985 116.067C147.855 118.535 130.536 117.689 130.536 117.689L121.372 101.208L144.749 102.973" fill="#1846D6"/>
<path d="M124.719 105.054C135.318 113.408 148.685 117.444 162.137 116.351C162.137 116.351 171.179 71.783 169.778 70.547C165.982 67.201 130.114 64.406 117.386 69.113L124.719 105.054Z" fill="white"/>
<path d="M145.439 82.225C149.919 82.225 153.55 77.783 153.55 72.302C153.55 66.821 149.919 62.378 145.439 62.378C140.959 62.378 137.327 66.821 137.327 72.302C137.327 77.782 140.959 82.225 145.439 82.225Z" fill="white" stroke="#31333A" stroke-width="0.998" stroke-linecap="round" stroke-linejoin="round"/>
<path d="M145.707 77.328C149.686 77.328 152.911 73.625 152.911 69.058C152.911 64.491 149.686 60.788 145.707 60.788C141.729 60.788 138.503 64.491 138.503 69.058C138.503 73.625 141.729 77.328 145.707 77.328Z" fill="white"/>
<path d="M145.707 77.328C149.686 77.328 152.911 73.625 152.911 69.058C152.911 64.491 149.686 60.788 145.707 60.788C141.729 60.788 138.503 64.491 138.503 69.058C138.503 73.625 141.729 77.328 145.707 77.328Z" stroke="#31333A" stroke-width="0.998" stroke-linecap="round" stroke-linejoin="round"/>
<path d="M124.719 105.054C135.318 113.408 148.685 117.444 162.137 116.351C162.137 116.351 171.179 71.783 169.778 70.547C165.982 67.201 130.114 64.406 117.386 69.113L124.719 105.054Z" stroke="#31333A" stroke-width="0.998" stroke-linecap="round" stroke-linejoin="round"/>
<path d="M175.344 90.752L175.606 125.517L160.07 117.186L157.985 97.273L162.318 95.354L175.344 90.752Z" fill="white"/>
<path d="M155.098 104.321C170.264 102.943 175.419 100.705 175.419 100.705L152.637 93.813" fill="#DCDDDD"/>
<path d="M175.344 90.752L175.606 125.517L160.07 117.186L157.985 97.273L162.318 95.354L175.344 90.752Z" stroke="#31333A" stroke-width="0.998" stroke-linecap="round" stroke-linejoin="round"/>
<path d="M117.386 69.113C116.002 67.522 101.472 86.22 101.472 86.22C102.936 92.938 113.429 97.94 113.429 97.94L130.092 82.104" fill="white"/>
<path d="M117.386 69.113C116.002 67.522 101.472 86.22 101.472 86.22C102.936 92.938 113.429 97.94 113.429 97.94L130.092 82.104" stroke="#31333A" stroke-width="0.998" stroke-linecap="round" stroke-linejoin="round"/>
<path d="M156.034 89.63L157.85 99.645C163.072 102.627 176.789 100.523 176.789 100.523C176.789 100.523 178.674 69.356 166.796 69.408" fill="white"/>
<path d="M156.034 89.63L157.85 99.645C163.072 102.627 176.789 100.523 176.789 100.523C176.789 100.523 178.674 69.356 166.796 69.408" stroke="#31333A" stroke-width="0.998" stroke-linecap="round" stroke-linejoin="round"/>
<path d="M147.957 167.407C147.957 167.407 150.462 160.968 152.867 161.31C153.978 161.468 155.17 165.146 155.17 165.146L158.96 175.819L152.935 184.463L144.685 182.202L144.112 180.222L141.963 171.825L147.957 167.407Z" fill="white" stroke="#31333A" stroke-width="0.998" stroke-linecap="round" stroke-linejoin="round"/>
<path d="M142.286 139.914L132.724 154.717L143.579 177.552L145.609 185.08L150.154 186.877L157.431 178.922L158.493 174.681L156.298 170.372L142.286 139.914Z" fill="white"/>
<path d="M123.628 156.276C131.611 177.837 146.707 164.236 149.684 152.078C152.661 139.92 135.931 152.753 135.931 152.753" fill="#DCDDDD"/>
<path d="M142.286 139.914L132.724 154.717L143.579 177.552L145.609 185.08L150.154 186.877L157.431 178.922L158.493 174.681L156.298 170.372L142.286 139.914Z" stroke="#31333A" stroke-width="0.998" stroke-linecap="round" stroke-linejoin="round"/>
<path d="M144.113 180.222C153.037 187.546 158.493 174.681 158.493 174.681C158.493 174.681 168.058 199.362 158.493 198.906C148.76 198.442 144.113 180.222 144.113 180.222Z" fill="white" stroke="#31333A" stroke-width="0.998" stroke-linecap="round" stroke-linejoin="round"/>
<path d="M123.232 167.739C132.856 172.494 147.301 156.199 149.467 154.008L127.259 82.235L101.582 104.99L123.232 167.739Z" fill="#5578EC"/>
<path d="M99.093 111.656C118.05 98.872 120.56 89.94 120.56 89.94L103.156 94.791L96.926 108.368" fill="white"/>
<path d="M99.093 111.656C118.05 98.872 120.56 89.94 120.56 89.94L103.156 94.791L96.926 108.368" stroke="#31333A" stroke-width="0.998" stroke-linecap="round" stroke-linejoin="round"/>
<path d="M100.442 119.219L127.944 84.449L100.624 100.269" fill="#1846D6"/>
<path d="M116.802 163.089C127.882 169.898 150.159 146.939 150.159 146.939M108.044 107.53L125.525 165.017" stroke="#31333A" stroke-width="0.998" stroke-linecap="round" stroke-linejoin="round"/>
<path d="M123.232 167.739C132.856 172.494 147.301 156.199 149.467 154.008L127.259 82.235L101.582 104.99L123.232 167.739Z" stroke="#31333A" stroke-width="0.998" stroke-linecap="round" stroke-linejoin="round"/>
<path d="M124.057 86.475C125.533 87.5391 127.08 88.5013 128.687 89.355C130.536 90.146 128.305 97.89 130.997 95.556C130.997 95.556 130.915 99.159 133.322 97.726C133.322 97.726 133.994 98.558 134.918 97.138C135.843 95.719 136.468 93.276 135.924 91.966L135.484 89.936C135.484 89.936 136.858 98.078 138.984 95.483C139.234 95.178 138.149 88.844 137.931 88.408C137.714 87.971 131.979 82.231 131.979 82.231L124.057 86.475Z" fill="white"/>
<path d="M119.221 93.317C130.168 90.939 130.449 84.37 133.146 82.192C135.843 80.015 119.221 84.055 119.221 84.055L116.801 87.917" fill="#DCDDDD"/>
<path d="M124.057 86.475C125.533 87.5391 127.08 88.5013 128.687 89.355C130.536 90.146 128.305 97.89 130.997 95.556C130.997 95.556 130.915 99.159 133.322 97.726C133.322 97.726 133.994 98.558 134.918 97.138C135.843 95.719 136.468 93.276 135.924 91.966L135.484 89.936C135.484 89.936 136.858 98.078 138.984 95.483C139.234 95.178 138.149 88.844 137.931 88.408C137.714 87.971 131.979 82.231 131.979 82.231L124.057 86.475Z" stroke="#31333A" stroke-width="0.998" stroke-linecap="round" stroke-linejoin="round"/>
<path d="M124.892 88.07C124.892 88.07 132.289 84.527 133.146 82.192L126.037 76.811C125.562 76.4483 124.99 76.2363 124.394 76.2024C123.797 76.1686 123.205 76.3144 122.692 76.621L95.308 95.04C94.3881 95.67 93.6368 96.516 93.1197 97.5038C92.6026 98.4916 92.3356 99.5911 92.342 100.706V100.985C92.316 102.616 92.8897 104.2 93.9542 105.437C95.0186 106.673 96.4999 107.476 98.117 107.693C99.0475 107.798 99.9897 107.696 100.876 107.395C101.763 107.093 102.571 106.598 103.244 105.947L123.256 86.78L124.892 88.068V88.07Z" fill="white" stroke="#31333A" stroke-width="0.998" stroke-linecap="round" stroke-linejoin="round"/>
<path d="M139.644 68.372L139.851 55.604L151.629 55.167L151.427 67.61" fill="white"/>
<path d="M134.811 66.86C140.518 70.692 149.007 62.511 149.007 62.511L141.392 60.269L138.555 61.825L138.524 62.645" fill="#DCDDDD"/>
<path d="M139.644 68.372L139.851 55.604L151.629 55.167L151.427 67.61" stroke="#31333A" stroke-width="0.998" stroke-linecap="round" stroke-linejoin="round"/>
<path d="M154.461 53.434L137.257 54.848L137.244 47.381C137.254 46.7547 137.495 46.1542 137.92 45.6941C138.345 45.234 138.924 44.9467 139.548 44.887L152.136 43.853C152.43 43.8223 152.728 43.8543 153.009 43.947C153.29 44.0397 153.548 44.1909 153.767 44.3906C153.985 44.5903 154.159 44.8341 154.276 45.1058C154.394 45.3775 154.452 45.671 154.448 45.967L154.461 53.434Z" fill="#31333A"/>
<path d="M145.439 62.907C144.58 62.9372 143.723 62.7852 142.927 62.4609C142.13 62.1366 141.412 61.6473 140.818 61.0253C140.224 60.4033 139.769 59.6626 139.481 58.852C139.194 58.0414 139.082 57.1791 139.152 56.322L139.551 45.662L152.638 45.097L152.239 55.757C152.183 57.5762 151.458 59.311 150.204 60.6298C148.949 61.9487 147.253 62.7594 145.439 62.907Z" fill="white" stroke="#31333A" stroke-width="0.998" stroke-linecap="round" stroke-linejoin="round"/>
<path d="M151.39 37.041C150.33 37.1895 149.337 37.642 148.529 38.3438C147.722 39.0456 147.135 39.9665 146.84 40.995C141.879 43.392 136.648 39.144 137.245 47.381L137.845 49.664C140.13 42.774 143.771 51.472 148.44 46.704C149.325 45.8299 150.486 45.2914 151.725 45.181C151.901 45.163 152.079 45.137 152.259 45.103C155.038 44.583 157.097 42.356 156.856 40.13C156.616 37.904 154.169 36.52 151.39 37.041ZM152.767 54.66L152.273 53.974C149.642 61.754 149.974 56.35 145.669 56.741C141.379 56.721 141.308 62.114 139.251 54.536L138.704 55.267C138.394 56.9005 138.642 58.5908 139.408 60.0664C140.174 61.5421 141.414 62.7175 142.928 63.404C143.717 63.7695 144.581 63.9407 145.45 63.9033C146.318 63.8659 147.165 63.6209 147.919 63.189C149.494 62.4233 150.8 61.1986 151.665 59.6762C152.531 58.1537 152.915 56.4049 152.767 54.66Z" fill="#31333A"/>
<path d="M140.601 51.11C135.209 46.686 134.786 56.682 140.726 55.607L140.601 51.11Z" fill="white"/>
<path d="M140.601 51.11C135.209 46.686 134.786 56.682 140.726 55.607" stroke="#31333A" stroke-width="0.998" stroke-linecap="round" stroke-linejoin="round"/>
<path d="M151.175 50.654C156.916 45.749 156.591 55.741 150.713 55.176L151.175 50.654Z" fill="white"/>
<path d="M151.175 50.654C156.916 45.749 156.591 55.741 150.713 55.176" stroke="#31333A" stroke-width="0.998" stroke-linecap="round" stroke-linejoin="round"/>
<path d="M144.651 50.795C143.582 50.532 142.463 50.5523 141.404 50.854L144.651 50.795Z" fill="white"/>
<path d="M144.651 50.795C143.582 50.532 142.463 50.5523 141.404 50.854" stroke="#31333A" stroke-width="0.998" stroke-linecap="round" stroke-linejoin="round"/>
<path d="M143.13 53.803C143.053 53.8024 142.978 53.7864 142.908 53.7558C142.837 53.7252 142.774 53.6807 142.722 53.625C142.669 53.5693 142.629 53.5036 142.602 53.4317C142.576 53.3599 142.564 53.2835 142.568 53.207L142.612 52.317C142.622 52.1605 142.692 52.014 142.808 51.9078C142.923 51.8017 143.075 51.7441 143.232 51.747C143.347 51.7478 143.46 51.7838 143.554 51.8503C143.649 51.9168 143.72 52.0106 143.76 52.119C143.786 52.1907 143.798 52.2668 143.794 52.343L143.75 53.234C143.74 53.3906 143.67 53.5373 143.555 53.6434C143.439 53.7495 143.287 53.8067 143.13 53.803Z" fill="#31333A"/>
<path d="M146.9 50.846C147.978 50.6335 149.092 50.7055 150.134 51.055L146.9 50.846Z" fill="white"/>
<path d="M146.9 50.846C147.978 50.6335 149.092 50.7055 150.134 51.055" stroke="#31333A" stroke-width="0.998" stroke-linecap="round" stroke-linejoin="round"/>
<path d="M148.119 53.919C148.276 53.9237 148.429 53.8667 148.545 53.7602C148.661 53.6537 148.73 53.5061 148.739 53.349L148.783 52.459C148.787 52.3824 148.776 52.3057 148.749 52.2338C148.723 52.1618 148.681 52.0962 148.628 52.041C148.576 51.9852 148.513 51.9406 148.443 51.91C148.373 51.8794 148.297 51.8634 148.221 51.863C148.064 51.8591 147.912 51.9161 147.796 52.022C147.681 52.1279 147.611 52.2745 147.601 52.431L147.556 53.322C147.551 53.4372 147.581 53.5512 147.642 53.6492C147.703 53.7471 147.792 53.8244 147.897 53.871C147.967 53.901 148.042 53.919 148.119 53.919Z" fill="#31333A"/>
<path d="M145.67 52.833L145.61 54.041C145.61 54.041 144.63 54.941 145.541 55.422" fill="white"/>
<path d="M145.67 52.833L145.61 54.041C145.61 54.041 144.63 54.941 145.541 55.422M182.883 153.182L179.01 160.59M137.286 52.076L138.012 53.373M154.007 51.62L153.281 52.916" stroke="#31333A" stroke-width="0.998" stroke-linecap="round" stroke-linejoin="round"/>
<path d="M246.97 80.289L256.027 76.976M242.442 88.257L251.499 84.944M205.663 132.287C208.627 132.287 211.03 129.876 211.03 126.901C211.03 123.926 208.627 121.515 205.663 121.515C202.699 121.515 200.296 123.926 200.296 126.901C200.296 129.876 202.699 132.287 205.663 132.287Z" stroke="#3351E5" stroke-width="1.996" stroke-linecap="round" stroke-linejoin="round"/>
</svg>
