<svg width="47" height="63" viewBox="0 0 47 63" fill="none" xmlns="http://www.w3.org/2000/svg">
<path d="M46.5 25.4524H32.9875C32.8917 23.9895 32.6361 22.6625 32.2208 21.4713C31.8215 20.2801 31.2625 19.2561 30.5437 18.3993C29.841 17.5215 28.9865 16.8528 27.9802 16.393C26.974 15.9124 25.8319 15.6721 24.5542 15.6721C22.3181 15.6721 20.4253 16.3826 18.876 17.8037C17.3427 19.2247 16.1767 21.2623 15.3781 23.9164C14.5955 26.5705 14.2042 29.7574 14.2042 33.4773C14.2042 33.4516 14.6035 36.743 15.4021 39.3971C16.2167 42.0303 17.3906 44.0156 18.924 45.3531C20.4573 46.6697 22.3021 47.3279 24.4583 47.3279C25.6882 47.3279 26.7903 47.1294 27.7646 46.7323C28.7389 46.3144 29.5854 45.7188 30.3042 44.9456C31.0229 44.1723 31.6059 43.2424 32.0531 42.1557C32.5163 41.048 32.8278 39.8046 32.9875 38.4253L46.5 38.5507C46.3403 41.2675 45.7573 44.0365 44.751 46.8577C43.7448 49.6581 42.3153 52.2495 40.4625 54.6318C38.6257 56.9933 36.3496 58.8951 33.6344 60.337C30.9191 61.779 27.7646 62.5 24.1708 62.5C19.6667 62.5 15.6257 61.2357 12.0479 58.707C8.48611 56.1783 5.66701 52.4584 3.59062 47.5474C1.53021 42.6363 0.5 36.6281 0.5 33.4773C0.5 26.3301 1.55417 20.3115 3.6625 15.4213C5.77083 10.5102 8.61389 6.80079 12.1917 4.29302C15.7694 1.76434 19.7625 0.5 24.1708 0.5C27.2694 0.5 30.1205 1.0538 32.724 2.1614C35.3274 3.26901 37.6115 4.88861 39.576 7.02022C41.5406 9.13094 43.1219 11.7328 44.3198 14.8257C45.5177 17.9186 46.2444 21.4609 46.5 25.4524Z" fill="#F4702A"/>
</svg>
