<svg width="180" height="273" viewBox="0 0 180 273" fill="none" xmlns="http://www.w3.org/2000/svg">
<rect width="180" height="273" fill="#FAFAFA"/>
<g clip-path="url(#clip0_19_89)">
<path d="M107.5 91H72.5C69.186 91.004 66.0089 92.3222 63.6655 94.6655C61.3222 97.0089 60.004 100.186 60 103.5L60 138.5C60.004 141.814 61.3222 144.991 63.6655 147.334C66.0089 149.678 69.186 150.996 72.5 151H107.5C110.814 150.996 113.991 149.678 116.334 147.334C118.678 144.991 119.996 141.814 120 138.5V103.5C119.996 100.186 118.678 97.0089 116.334 94.6655C113.991 92.3222 110.814 91.004 107.5 91ZM72.5 96H107.5C109.489 96 111.397 96.7902 112.803 98.1967C114.21 99.6032 115 101.511 115 103.5V138.5C114.996 139.614 114.739 140.712 114.25 141.712L91.3425 118.805C90.1817 117.644 88.8036 116.723 87.2868 116.094C85.77 115.466 84.1443 115.143 82.5025 115.143C80.8607 115.143 79.235 115.466 77.7182 116.094C76.2014 116.723 74.8233 117.644 73.6625 118.805L65 127.465V103.5C65 101.511 65.7902 99.6032 67.1967 98.1967C68.6032 96.7902 70.5109 96 72.5 96ZM72.5 146C70.5109 146 68.6032 145.21 67.1967 143.803C65.7902 142.397 65 140.489 65 138.5V134.535L77.195 122.34C77.8915 121.643 78.7185 121.09 79.6288 120.713C80.539 120.336 81.5147 120.142 82.5 120.142C83.4853 120.142 84.461 120.336 85.3712 120.713C86.2815 121.09 87.1085 121.643 87.805 122.34L110.712 145.25C109.712 145.739 108.614 145.996 107.5 146H72.5Z" fill="#C8C8C8"/>
<path d="M100 117.25C101.731 117.25 103.422 116.737 104.861 115.775C106.3 114.814 107.422 113.447 108.084 111.848C108.746 110.25 108.919 108.49 108.582 106.793C108.244 105.096 107.411 103.537 106.187 102.313C104.963 101.089 103.404 100.256 101.707 99.9181C100.01 99.5805 98.2504 99.7538 96.6515 100.416C95.0527 101.078 93.6861 102.2 92.7246 103.639C91.7632 105.078 91.25 106.769 91.25 108.5C91.25 110.821 92.1719 113.046 93.8128 114.687C95.4538 116.328 97.6794 117.25 100 117.25ZM100 104.75C100.742 104.75 101.467 104.97 102.083 105.382C102.7 105.794 103.181 106.38 103.465 107.065C103.748 107.75 103.823 108.504 103.678 109.232C103.533 109.959 103.176 110.627 102.652 111.152C102.127 111.676 101.459 112.033 100.732 112.178C100.004 112.323 99.2502 112.248 98.5649 111.965C97.8797 111.681 97.294 111.2 96.882 110.583C96.4699 109.967 96.25 109.242 96.25 108.5C96.25 107.505 96.6451 106.552 97.3483 105.848C98.0516 105.145 99.0054 104.75 100 104.75Z" fill="#C8C8C8"/>
</g>
<path d="M37.4439 170.818V181H35.2912V170.818H37.4439ZM39.1752 181V173.364H41.1937V174.711H41.2832C41.4423 174.263 41.7074 173.911 42.0787 173.652C42.4499 173.393 42.894 173.264 43.411 173.264C43.9347 173.264 44.3805 173.395 44.7484 173.657C45.1163 173.915 45.3616 174.267 45.4842 174.711H45.5637C45.7195 174.273 46.0012 173.924 46.4089 173.662C46.8199 173.397 47.3055 173.264 47.8656 173.264C48.5782 173.264 49.1565 173.491 49.6007 173.945C50.0481 174.396 50.2718 175.036 50.2718 175.864V181H48.1589V176.282C48.1589 175.858 48.0462 175.54 47.8208 175.327C47.5955 175.115 47.3137 175.009 46.9757 175.009C46.5912 175.009 46.2913 175.132 46.0758 175.377C45.8604 175.619 45.7527 175.939 45.7527 176.337V181H43.6994V176.237C43.6994 175.863 43.5917 175.564 43.3762 175.342C43.1641 175.12 42.8841 175.009 42.536 175.009C42.3007 175.009 42.0886 175.069 41.8997 175.188C41.7141 175.304 41.5666 175.468 41.4572 175.68C41.3478 175.889 41.2931 176.134 41.2931 176.416V181H39.1752ZM54.1223 181.144C53.6351 181.144 53.2009 181.06 52.8198 180.891C52.4386 180.718 52.137 180.465 51.915 180.13C51.6962 179.792 51.5868 179.371 51.5868 178.867C51.5868 178.443 51.6647 178.087 51.8205 177.798C51.9763 177.51 52.1884 177.278 52.4569 177.102C52.7253 176.927 53.0302 176.794 53.3716 176.705C53.7163 176.615 54.0776 176.552 54.4554 176.516C54.8996 176.469 55.2575 176.426 55.5293 176.386C55.8011 176.343 55.9983 176.28 56.1209 176.197C56.2435 176.115 56.3049 175.992 56.3049 175.83V175.8C56.3049 175.485 56.2054 175.241 56.0066 175.069C55.811 174.897 55.5326 174.81 55.1713 174.81C54.7902 174.81 54.4869 174.895 54.2615 175.064C54.0362 175.23 53.887 175.438 53.8141 175.69L51.8553 175.531C51.9547 175.067 52.1503 174.666 52.4419 174.328C52.7336 173.987 53.1098 173.725 53.5705 173.543C54.0345 173.357 54.5714 173.264 55.1813 173.264C55.6055 173.264 56.0115 173.314 56.3993 173.413C56.7904 173.513 57.1368 173.667 57.4384 173.876C57.7433 174.085 57.9836 174.353 58.1593 174.681C58.3349 175.006 58.4228 175.395 58.4228 175.849V181H56.4142V179.941H56.3546C56.2319 180.18 56.0679 180.39 55.8624 180.572C55.6569 180.751 55.41 180.892 55.1216 180.995C54.8333 181.094 54.5002 181.144 54.1223 181.144ZM54.7289 179.683C55.0404 179.683 55.3155 179.621 55.5542 179.499C55.7928 179.373 55.9801 179.204 56.1159 178.991C56.2518 178.779 56.3198 178.539 56.3198 178.271V177.46C56.2535 177.503 56.1623 177.543 56.0463 177.58C55.9337 177.613 55.806 177.644 55.6635 177.674C55.521 177.701 55.3785 177.725 55.236 177.749C55.0935 177.768 54.9642 177.787 54.8482 177.803C54.5996 177.84 54.3825 177.898 54.1969 177.977C54.0113 178.057 53.8671 178.165 53.7644 178.3C53.6616 178.433 53.6103 178.599 53.6103 178.798C53.6103 179.086 53.7147 179.306 53.9235 179.459C54.1356 179.608 54.4041 179.683 54.7289 179.683ZM63.5062 184.023C62.8201 184.023 62.2318 183.928 61.7413 183.739C61.2541 183.554 60.8663 183.3 60.5779 182.979C60.2896 182.657 60.1023 182.296 60.0162 181.895L61.975 181.631C62.0346 181.784 62.1291 181.926 62.2583 182.059C62.3876 182.192 62.5583 182.298 62.7704 182.377C62.9859 182.46 63.2477 182.501 63.5559 182.501C64.0166 182.501 64.3961 182.389 64.6944 182.163C64.996 181.941 65.1468 181.568 65.1468 181.045V179.648H65.0574C64.9645 179.86 64.8253 180.06 64.6397 180.249C64.4541 180.438 64.2155 180.592 63.9238 180.712C63.6322 180.831 63.2842 180.891 62.8798 180.891C62.3064 180.891 61.7844 180.758 61.3137 180.493C60.8464 180.224 60.4735 179.815 60.1951 179.265C59.92 178.711 59.7825 178.012 59.7825 177.167C59.7825 176.302 59.9234 175.579 60.2051 174.999C60.4868 174.419 60.8613 173.985 61.3287 173.697C61.7993 173.408 62.3147 173.264 62.8748 173.264C63.3024 173.264 63.6603 173.337 63.9487 173.483C64.237 173.625 64.469 173.804 64.6447 174.02C64.8237 174.232 64.9612 174.441 65.0574 174.646H65.1369V173.364H67.2399V181.075C67.2399 181.724 67.0808 182.268 66.7626 182.705C66.4444 183.143 66.0036 183.471 65.4402 183.69C64.88 183.912 64.2354 184.023 63.5062 184.023ZM63.551 179.3C63.8923 179.3 64.1807 179.215 64.416 179.046C64.6547 178.874 64.8369 178.629 64.9629 178.31C65.0922 177.989 65.1568 177.604 65.1568 177.157C65.1568 176.71 65.0938 176.322 64.9679 175.994C64.8419 175.662 64.6596 175.405 64.421 175.223C64.1824 175.041 63.8923 174.95 63.551 174.95C63.2029 174.95 62.9096 175.044 62.671 175.233C62.4324 175.419 62.2517 175.677 62.1291 176.009C62.0065 176.34 61.9451 176.723 61.9451 177.157C61.9451 177.598 62.0065 177.979 62.1291 178.3C62.255 178.619 62.4357 178.866 62.671 179.041C62.9096 179.214 63.2029 179.3 63.551 179.3ZM72.4054 181.149C71.6199 181.149 70.9437 180.99 70.377 180.672C69.8135 180.35 69.3793 179.896 69.0744 179.31C68.7695 178.72 68.617 178.022 68.617 177.217C68.617 176.431 68.7695 175.742 69.0744 175.148C69.3793 174.555 69.8085 174.093 70.362 173.761C70.9189 173.43 71.5718 173.264 72.3208 173.264C72.8246 173.264 73.2936 173.345 73.7278 173.508C74.1653 173.667 74.5465 173.907 74.8713 174.229C75.1994 174.55 75.4546 174.955 75.6369 175.442C75.8192 175.926 75.9103 176.492 75.9103 177.142V177.724H69.4622V176.411H73.9167C73.9167 176.106 73.8504 175.836 73.7179 175.601C73.5853 175.366 73.4013 175.182 73.166 175.049C72.934 174.913 72.6639 174.845 72.3556 174.845C72.0342 174.845 71.7491 174.92 71.5005 175.069C71.2553 175.215 71.063 175.412 70.9238 175.661C70.7846 175.906 70.7134 176.179 70.71 176.481V177.729C70.71 178.107 70.7797 178.433 70.9189 178.708C71.0614 178.983 71.2619 179.195 71.5204 179.344C71.7789 179.494 72.0855 179.568 72.4402 179.568C72.6755 179.568 72.8909 179.535 73.0865 179.469C73.282 179.402 73.4494 179.303 73.5886 179.17C73.7278 179.038 73.8339 178.875 73.9068 178.683L75.8656 178.812C75.7662 179.283 75.5623 179.694 75.2541 180.045C74.9492 180.393 74.5547 180.665 74.0708 180.861C73.5903 181.053 73.0351 181.149 72.4054 181.149ZM77.2924 181V173.364H79.3109V174.711H79.4004C79.5595 174.263 79.8246 173.911 80.1958 173.652C80.5671 173.393 81.0112 173.264 81.5282 173.264C82.0519 173.264 82.4977 173.395 82.8656 173.657C83.2335 173.915 83.4788 174.267 83.6014 174.711H83.6809C83.8367 174.273 84.1184 173.924 84.5261 173.662C84.9371 173.397 85.4226 173.264 85.9828 173.264C86.6954 173.264 87.2737 173.491 87.7179 173.945C88.1653 174.396 88.389 175.036 88.389 175.864V181H86.2761V176.282C86.2761 175.858 86.1634 175.54 85.938 175.327C85.7127 175.115 85.4309 175.009 85.0929 175.009C84.7084 175.009 84.4084 175.132 84.193 175.377C83.9776 175.619 83.8699 175.939 83.8699 176.337V181H81.8166V176.237C81.8166 175.863 81.7089 175.564 81.4934 175.342C81.2813 175.12 81.0012 175.009 80.6532 175.009C80.4179 175.009 80.2058 175.069 80.0169 175.188C79.8313 175.304 79.6838 175.468 79.5744 175.68C79.465 175.889 79.4103 176.134 79.4103 176.416V181H77.2924ZM96.1161 181.124C95.5361 181.124 95.0108 180.975 94.5401 180.677C94.0728 180.375 93.7016 179.933 93.4265 179.349C93.1547 178.763 93.0188 178.044 93.0188 177.192C93.0188 176.317 93.1597 175.589 93.4414 175.009C93.7231 174.426 94.0977 173.99 94.565 173.702C95.0356 173.41 95.551 173.264 96.1112 173.264C96.5387 173.264 96.895 173.337 97.18 173.483C97.4684 173.625 97.7004 173.804 97.8761 174.02C98.055 174.232 98.1909 174.441 98.2837 174.646H98.3484V170.818H100.461V181H98.3732V179.777H98.2837C98.1843 179.989 98.0434 180.2 97.8612 180.408C97.6822 180.614 97.4485 180.785 97.1602 180.92C96.8751 181.056 96.5271 181.124 96.1161 181.124ZM96.7873 179.439C97.1287 179.439 97.417 179.346 97.6523 179.161C97.891 178.972 98.0733 178.708 98.1992 178.37C98.3285 178.032 98.3931 177.636 98.3931 177.182C98.3931 176.728 98.3301 176.333 98.2042 175.999C98.0782 175.664 97.896 175.405 97.6573 175.223C97.4187 175.041 97.1287 174.95 96.7873 174.95C96.4393 174.95 96.146 175.044 95.9073 175.233C95.6687 175.422 95.488 175.684 95.3654 176.018C95.2428 176.353 95.1815 176.741 95.1815 177.182C95.1815 177.626 95.2428 178.019 95.3654 178.36C95.4914 178.698 95.672 178.963 95.9073 179.156C96.146 179.344 96.4393 179.439 96.7873 179.439ZM105.683 181.149C104.897 181.149 104.221 180.99 103.654 180.672C103.091 180.35 102.657 179.896 102.352 179.31C102.047 178.72 101.894 178.022 101.894 177.217C101.894 176.431 102.047 175.742 102.352 175.148C102.657 174.555 103.086 174.093 103.639 173.761C104.196 173.43 104.849 173.264 105.598 173.264C106.102 173.264 106.571 173.345 107.005 173.508C107.443 173.667 107.824 173.907 108.149 174.229C108.477 174.55 108.732 174.955 108.914 175.442C109.097 175.926 109.188 176.492 109.188 177.142V177.724H102.74V176.411H107.194C107.194 176.106 107.128 175.836 106.995 175.601C106.863 175.366 106.679 175.182 106.443 175.049C106.211 174.913 105.941 174.845 105.633 174.845C105.311 174.845 105.026 174.92 104.778 175.069C104.533 175.215 104.34 175.412 104.201 175.661C104.062 175.906 103.991 176.179 103.987 176.481V177.729C103.987 178.107 104.057 178.433 104.196 178.708C104.339 178.983 104.539 179.195 104.798 179.344C105.056 179.494 105.363 179.568 105.718 179.568C105.953 179.568 106.168 179.535 106.364 179.469C106.559 179.402 106.727 179.303 106.866 179.17C107.005 179.038 107.111 178.875 107.184 178.683L109.143 178.812C109.044 179.283 108.84 179.694 108.531 180.045C108.227 180.393 107.832 180.665 107.348 180.861C106.868 181.053 106.312 181.149 105.683 181.149ZM122.833 174.383H120.656C120.616 174.101 120.535 173.851 120.412 173.632C120.29 173.41 120.132 173.221 119.94 173.065C119.748 172.91 119.526 172.79 119.274 172.707C119.025 172.625 118.755 172.583 118.463 172.583C117.936 172.583 117.477 172.714 117.086 172.976C116.695 173.234 116.392 173.612 116.176 174.109C115.961 174.603 115.853 175.203 115.853 175.909C115.853 176.635 115.961 177.245 116.176 177.739C116.395 178.232 116.7 178.605 117.091 178.857C117.482 179.109 117.935 179.235 118.449 179.235C118.737 179.235 119.004 179.197 119.249 179.121C119.498 179.045 119.718 178.933 119.91 178.788C120.102 178.638 120.261 178.458 120.387 178.246C120.517 178.034 120.606 177.792 120.656 177.52L122.833 177.53C122.777 177.997 122.636 178.448 122.411 178.882C122.189 179.313 121.889 179.699 121.511 180.04C121.136 180.379 120.689 180.647 120.169 180.846C119.652 181.041 119.067 181.139 118.414 181.139C117.506 181.139 116.694 180.934 115.978 180.523C115.265 180.112 114.702 179.517 114.287 178.738C113.876 177.959 113.671 177.016 113.671 175.909C113.671 174.799 113.88 173.854 114.297 173.075C114.715 172.296 115.282 171.703 115.998 171.295C116.713 170.884 117.519 170.679 118.414 170.679C119.004 170.679 119.551 170.762 120.054 170.928C120.561 171.093 121.011 171.335 121.402 171.653C121.793 171.968 122.111 172.354 122.356 172.812C122.605 173.269 122.764 173.793 122.833 174.383ZM126.515 181.144C126.028 181.144 125.594 181.06 125.212 180.891C124.831 180.718 124.53 180.465 124.308 180.13C124.089 179.792 123.979 179.371 123.979 178.867C123.979 178.443 124.057 178.087 124.213 177.798C124.369 177.51 124.581 177.278 124.849 177.102C125.118 176.927 125.423 176.794 125.764 176.705C126.109 176.615 126.47 176.552 126.848 176.516C127.292 176.469 127.65 176.426 127.922 176.386C128.194 176.343 128.391 176.28 128.513 176.197C128.636 176.115 128.697 175.992 128.697 175.83V175.8C128.697 175.485 128.598 175.241 128.399 175.069C128.204 174.897 127.925 174.81 127.564 174.81C127.183 174.81 126.879 174.895 126.654 175.064C126.429 175.23 126.28 175.438 126.207 175.69L124.248 175.531C124.347 175.067 124.543 174.666 124.835 174.328C125.126 173.987 125.502 173.725 125.963 173.543C126.427 173.357 126.964 173.264 127.574 173.264C127.998 173.264 128.404 173.314 128.792 173.413C129.183 173.513 129.529 173.667 129.831 173.876C130.136 174.085 130.376 174.353 130.552 174.681C130.728 175.006 130.815 175.395 130.815 175.849V181H128.807V179.941H128.747C128.625 180.18 128.46 180.39 128.255 180.572C128.049 180.751 127.803 180.892 127.514 180.995C127.226 181.094 126.893 181.144 126.515 181.144ZM127.121 179.683C127.433 179.683 127.708 179.621 127.947 179.499C128.185 179.373 128.373 179.204 128.509 178.991C128.644 178.779 128.712 178.539 128.712 178.271V177.46C128.646 177.503 128.555 177.543 128.439 177.58C128.326 177.613 128.199 177.644 128.056 177.674C127.914 177.701 127.771 177.725 127.629 177.749C127.486 177.768 127.357 177.787 127.241 177.803C126.992 177.84 126.775 177.898 126.589 177.977C126.404 178.057 126.26 178.165 126.157 178.3C126.054 178.433 126.003 178.599 126.003 178.798C126.003 179.086 126.107 179.306 126.316 179.459C126.528 179.608 126.797 179.683 127.121 179.683ZM132.458 183.864V173.364H134.547V174.646H134.641C134.734 174.441 134.868 174.232 135.044 174.02C135.223 173.804 135.455 173.625 135.74 173.483C136.028 173.337 136.386 173.264 136.814 173.264C137.37 173.264 137.884 173.41 138.355 173.702C138.825 173.99 139.202 174.426 139.483 175.009C139.765 175.589 139.906 176.317 139.906 177.192C139.906 178.044 139.768 178.763 139.493 179.349C139.221 179.933 138.85 180.375 138.38 180.677C137.912 180.975 137.389 181.124 136.809 181.124C136.398 181.124 136.048 181.056 135.76 180.92C135.475 180.785 135.241 180.614 135.059 180.408C134.876 180.2 134.737 179.989 134.641 179.777H134.576V183.864H132.458ZM134.532 177.182C134.532 177.636 134.595 178.032 134.721 178.37C134.846 178.708 135.029 178.972 135.267 179.161C135.506 179.346 135.796 179.439 136.137 179.439C136.482 179.439 136.774 179.344 137.012 179.156C137.251 178.963 137.432 178.698 137.554 178.36C137.68 178.019 137.743 177.626 137.743 177.182C137.743 176.741 137.682 176.353 137.559 176.018C137.437 175.684 137.256 175.422 137.017 175.233C136.779 175.044 136.485 174.95 136.137 174.95C135.793 174.95 135.501 175.041 135.262 175.223C135.027 175.405 134.846 175.664 134.721 175.999C134.595 176.333 134.532 176.728 134.532 177.182ZM143.495 181.144C143.008 181.144 142.574 181.06 142.193 180.891C141.812 180.718 141.51 180.465 141.288 180.13C141.069 179.792 140.96 179.371 140.96 178.867C140.96 178.443 141.038 178.087 141.194 177.798C141.349 177.51 141.561 177.278 141.83 177.102C142.098 176.927 142.403 176.794 142.745 176.705C143.089 176.615 143.451 176.552 143.828 176.516C144.273 176.469 144.631 176.426 144.902 176.386C145.174 176.343 145.371 176.28 145.494 176.197C145.617 176.115 145.678 175.992 145.678 175.83V175.8C145.678 175.485 145.578 175.241 145.38 175.069C145.184 174.897 144.906 174.81 144.544 174.81C144.163 174.81 143.86 174.895 143.635 175.064C143.409 175.23 143.26 175.438 143.187 175.69L141.228 175.531C141.328 175.067 141.523 174.666 141.815 174.328C142.107 173.987 142.483 173.725 142.944 173.543C143.408 173.357 143.944 173.264 144.554 173.264C144.979 173.264 145.385 173.314 145.772 173.413C146.163 173.513 146.51 173.667 146.811 173.876C147.116 174.085 147.357 174.353 147.532 174.681C147.708 175.006 147.796 175.395 147.796 175.849V181H145.787V179.941H145.728C145.605 180.18 145.441 180.39 145.235 180.572C145.03 180.751 144.783 180.892 144.495 180.995C144.206 181.094 143.873 181.144 143.495 181.144ZM144.102 179.683C144.413 179.683 144.689 179.621 144.927 179.499C145.166 179.373 145.353 179.204 145.489 178.991C145.625 178.779 145.693 178.539 145.693 178.271V177.46C145.627 177.503 145.535 177.543 145.419 177.58C145.307 177.613 145.179 177.644 145.037 177.674C144.894 177.701 144.752 177.725 144.609 177.749C144.467 177.768 144.337 177.787 144.221 177.803C143.973 177.84 143.756 177.898 143.57 177.977C143.384 178.057 143.24 178.165 143.137 178.3C143.035 178.433 142.983 178.599 142.983 178.798C142.983 179.086 143.088 179.306 143.297 179.459C143.509 179.608 143.777 179.683 144.102 179.683Z" fill="#C8C8C8"/>
<defs>
<clipPath id="clip0_19_89">
<rect width="60" height="60" fill="white" transform="translate(60 91)"/>
</clipPath>
</defs>
</svg>
